<svg xmlns="http://www.w3.org/2000/svg" width="64" height="64" viewBox="0 0 64 64"><defs><linearGradient id="g" x1="0" y1="0" x2="1" y2="1"><stop offset="0" stop-color="#E11D48"/><stop offset="1" stop-color="#FB7185"/></linearGradient></defs><rect width="64" height="64" rx="14" fill="url(#g)"/><path d="M32 12c-1 6-6 9-8.5 13.5C21.8 28.4 21 31.2 21 34c0 7 5 12 11 12s11-5 11-12c0-4-1.8-7.2-4.4-10.4-.8 2.3-2 3.4-3.4 3.6C37 22.6 35.6 16.8 32 12z" fill="#fff"/><path d="M32 27c-.7 3-3.2 4.6-3.2 8.2 0 3 2.1 5.2 4.9 5.2s4.9-2.2 4.9-5.2c0-3.2-2.2-4.6-3.2-7.6-.7 1.1-1.9 1.7-3 1.7z" fill="#FFE08A"/></svg>